<?xml version="1.0" encoding="utf-8"?>
<!-- Generator: Adobe Illustrator 19.1.0, SVG Export Plug-In . SVG Version: 6.00 Build 0)  -->
<svg version="1.1" id="Layer_1" xmlns="http://www.w3.org/2000/svg" xmlns:xlink="http://www.w3.org/1999/xlink" x="0px" y="0px"
	 viewBox="-64 -22 816 120" style="enable-background:new -64 -22 816 120;" xml:space="preserve">
<g>
	<path d="M438.4,55.2c-4.3,1.6-8.6,3.3-13.1,4.6c-6.5,1.9-9.1,0.4-10.3-5.5c-5.4,2.1-10.7,4.5-16.1,6.3c-6.4,2.1-9.1,0.7-11.3-5.5
		c-4.4,1.5-8.6,3.3-13.1,4.6c-6.5,1.9-9.2,0.5-10.5-5c-8.7,2-17.4,4.1-26.1,5.8c-3.2,0.6-6.6,0.7-9.9,0.4c-5.3-0.4-8.7-3.9-9.3-8.8
		c-0.7-6.2,1.9-9.5,8.2-10c1.3-0.1,2.7-0.1,4-0.1c6.7,0.1,8,1.6,7.2,9.5c5.3-1.4,10.4-2.9,15.4-4.1c5.2-1.2,10.3-2.5,15.6-3.3
		c3.6-0.5,7.3-0.1,7.4,4.8c8.2-1,16.2-8.5,23.8,0.7c24.5-7.4,24.5-7.4,27.7-0.9c7.7-0.7,15.6-8.4,23.1,0.6c6.9-2,14-4.2,21.2-6.2
		c2.7-0.7,5.5-1.1,8.3-1.2c7.1-0.1,8.4,1.4,7.7,9.4c5.1-1.4,10-2.7,14.9-3.9c4.8-1.2,9.7-2.2,14.5-3.6c1.5-0.5,3-1.8,4.1-3.1
		c8.5-9.6,16.8-19.3,25.3-28.9c1.3-1.5,2.9-3.2,4.6-3.6c2-0.4,4.2,0.7,6.4,1.1c-0.5,2.1-0.3,4.7-1.6,6.1
		c-8.1,9.2-16.5,18.2-24.8,27.3c-0.9,1-1.6,2.1-2.8,3.8c4.4-1.4,8-2.9,11.7-3.6c6.7-1.2,8.3,0.4,8.3,6.7c8.1-2.2,16.4-4.4,24.7-6.6
		c9-2.4,20.4,1.2,22.8,7.6c3-1.4,5.9-3,8.9-4.2c2.9-1.1,5.9-2.1,9-2.7c4.2-0.8,7.9-0.2,7.4,5.5c7.9-1,15.2-9.9,23.4-1.3
		c15.1-4.9,17.2-4.7,20.9,2.1c6.1-3.2,11.9-7.5,19.4-6.2c1.5,0.3,3.4,0.1,4.2,1c3.4,3.8,6.8,1.9,10.6,0.8c4.5-1.4,9.3-2.8,13.6,1.3
		c0.7,0.6,2.7,0,4.1-0.3c5.2-1,10.4-2.2,15.6-2.9c3.1-0.4,5.1,1.1,5.1,4.6c0,3.3-1.9,3.8-4.7,4.5c-10.1,2.5-20.2,5.2-30.2,8.3
		c-4.6,1.4-6.6,1.4-8.6-1.7c-5.3,6-10.4,12.5-16.2,18.2c-2.1,2.1-5.8,2.9-8.9,3.5c-3.3,0.7-4.8-1.5-4.9-4.7
		c-0.1-6.1,3.6-10.3,7.6-14c3.4-3.1,7.2-5.8,10.9-8.7c-0.2-0.4-0.3-0.9-0.5-1.3c-2.8,1-5.6,2-8.4,3.2c-3.5,1.5-6.8,3.8-10.4,4.5
		c-5.9,1.2-7.2-0.1-8.7-5.9c-8,0-15.5,10.4-24.4,1.3c-16.4,6.9-19.3,6.9-21.3-0.6c-8.5,2.1-16.7,11.2-26.9,1.2
		c-5.7,1.2-12.8,8.5-20-0.8c-2.5,1.1-5.5,2.4-8.6,3.6c-7.6,3-14.9,2.7-22-1.5c-1.1-0.7-3-0.6-4.4-0.3c-1.9,0.4-3.6,1.6-5.5,2.2
		c-5.5,1.6-7.4,0.7-9.4-4.5c-8.4,1.9-16.8,3.9-25.3,5.5c-2.9,0.6-6,0.6-9,0.5c-4.9-0.2-6.7-1.5-10.8-7.6c-4.5,1.8-9,3.7-13.6,5.6
		c-1.8,0.7-3.7,1.5-5.6,2C442.9,62.4,440.8,61.2,438.4,55.2z"/>
	<path d="M89.4,50.1c6.2-2.1,13-3.2,18.5-6.6c4.1-2.5,6.4-7.8,10.6-13.2c-9.1,0.5-16.8,0.8-24.5,1.5c-5.3,0.5-10.5,1.9-15.7,2.5
		c-1.5,0.2-3.1-0.9-4.7-1.4c1.1-1.4,2-3.7,3.3-3.9c11.1-2,22.2-3.7,33.4-5.2c3.9-0.5,8-0.3,11.9-0.7c1.4-0.2,3.1-1.1,4.1-2.2
		c3.8-4,7.4-8.1,11-12.3c3.2-3.7,7.5-5.3,9.2-2.9c2.6,3.5,0.2,6.1-2.2,8.6c-2.5,2.6-5,5.3-7.9,8.5c5.4,0.4,10.2,0.5,14.8,1.1
		c2.6,0.4,5.3,1.2,7.5,2.6c3.1,1.9,4.2,5.4,2,8.2c-2.1,2.7-5.1,2.3-7.6-0.6c-1-1.1-2.9-1.6-4.4-1.8c-4.1-0.7-8.2-1-12.4-1.6
		c-4.2-0.5-7.6,0.2-10.3,4.2c-3.3,5.1-7.4,9.7-11.1,14.5c0.3,0.4,0.6,0.7,0.9,1.1c2.8-1.3,5.4-2.9,8.3-3.8c3.4-1.1,7-2,10.6-2.2
		c1.3-0.1,3.7,2.2,3.7,3.4c0,1.6-1.5,3.9-2.9,4.7c-5.2,2.6-10.6,4.6-16,6.8c-1.8,0.8-3.6,1.8-5.5,2.3c-6.9,1.8-9.4,0.2-10.7-6.3
		c-8.7,1.6-17,12.3-26.8,1.2c-16.5,5.6-17.1,5.5-20.3-2.9c-9,3.3-18,6.5-26.9,10c-15.8,5.9-31,13.4-47.8,16
		c-5.2,0.8-10.6,1.5-15.9,1.3c-10.1-0.3-15.7-6.5-16.2-16.6c-0.5-9.4,2.2-17.8,7.2-25.5C-30.2,18.6-12.2,4,10.2-5.1
		c8.6-3.5,17.8-4.6,27-2.5c4,0.9,8,3.2,11.3,5.8c1.5,1.2,1.1,4.6,1.6,7.1c-2.4,0.2-5.7,1.4-7.2,0.3c-8.1-6.5-16.8-6-25.6-2.9
		c-23.5,8.4-42.3,22.9-55,44.6c-1.7,3-3,6.4-3.7,9.7c-2.4,11,3.2,16.6,14.4,15c13.8-1.9,26.7-6.9,39.5-11.9
		c13.8-5.4,27.6-10.6,41.7-14.9c6.2-1.9,13.1-2.2,19.7-2.2c4.1,0,8.4,1.7,12.3,3.1C87.6,46.6,88.4,48.7,89.4,50.1z"/>
	<path d="M254.6,29.8c-5.4,4.1-10.9,8.1-16.3,12.2c-17.7,13.6-35.2,27.4-53,40.8c-2.7,2.1-6.6,3-10,3.7c-4,0.8-6-1.8-5.7-5.6
		c0.2-2.9,0.5-6.1,1.8-8.7C184,45.8,200,21.5,219.2-0.6c1.3-1.5,3.4-2.7,5.3-3.1c1.4-0.3,4.4,0.6,4.6,1.5c0.4,2,0.4,4.8-0.8,6.4
		c-10.5,14.3-21.6,28.2-31.8,42.7c-6,8.5-10.8,17.8-16.1,26.7c0.3,0.3,0.7,0.6,1,0.9c5.4-4,10.8-7.9,16.1-12.1
		c15.7-12.3,31.3-24.8,47.1-37.1c3.3-2.5,6.8-5,10.6-6.5c3-1.1,7.1-1.7,9.8-0.5c1.4,0.6,1.5,5.7,1,8.6c-0.9,4.7-2.7,9.2-4.2,13.8
		c-2.3,7.1-4.5,14.2-5.9,22c1.9-1.1,4-2,5.8-3.2c24.7-16.3,47.6-34.7,67.1-57.1c1.9-2.1,2.7-5.4,3.3-8.3c0.5-2.4,0.5-5.2,3.6-4.8
		c2,0.3,4.9,1.9,5.5,3.7c1.9,4.9,0,9.7-3.3,13.4c-6.2,6.9-12.3,14.2-19.4,20.1c-18.1,14.9-36.7,29.2-55.2,43.7
		c-0.4,0.3-0.8,0.6-1.3,0.8c-4.3,2.6-8.9,4.8-13.5,1.7c-4.2-2.9-3.5-7.8-2.4-11.9c2.2-8.3,5-16.5,7.6-24.8c0.6-1.9,1.3-3.7,2-5.5
		C255.4,30.4,255,30.1,254.6,29.8z"/>
</g>
</svg>
